<svg xmlns="http://www.w3.org/2000/svg" width="79.987" height="80" viewBox="0 0 79.987 80">
  <g id="promotion" transform="translate(-0.043)">
    <g id="XMLID_1850_" transform="translate(0.043)">
      <path id="XMLID_1911_" d="M79.572,33.647a1.564,1.564,0,0,0-1.413-.427L64.694,35.93a1.562,1.562,0,0,0-.8,2.637l1.822,1.822-7.15,7.15L53.034,42a1.562,1.562,0,0,0-2.21,0L44.033,48.8l2.548-9.154a7.336,7.336,0,0,0-4.487-8.829l2.037-5.818c.562.049,1.123.075,1.677.075a19.426,19.426,0,0,0,12.386-4.477l.372-.309a4.352,4.352,0,0,0,.713-6.023,4.334,4.334,0,0,0-6.2-.687l-.423.351a10.758,10.758,0,0,1-2.026,1.328,6.479,6.479,0,0,1-7.417-1.3,7.14,7.14,0,1,0-7.874-2.624,8.139,8.139,0,0,0-4.2,2.369,1.561,1.561,0,0,0-.184.189A21.2,21.2,0,0,1,20.334,20.9a4.321,4.321,0,0,0-2.573,2.036l-3.2-3.2a3.6,3.6,0,0,0-5.082,0L5.286,23.924h0L1.1,28.114a3.594,3.594,0,0,0,0,5.082L12.642,44.743a3.594,3.594,0,0,0,5.082,0L22.064,40.4l-2.057,5.4a1.562,1.562,0,1,0,2.92,1.114L28.05,33.476H39.523A4.2,4.2,0,0,1,43.57,38.8L40.02,51.56a1.336,1.336,0,0,1-1.283.975,1.332,1.332,0,0,1-1.316-1.541L39.31,39.117a1.562,1.562,0,0,0-1.543-1.808h-3.7a1.562,1.562,0,0,0-1.394.857c-.091.18-9.156,18.1-12.211,24.161a1.6,1.6,0,0,1-1.652.859l-.074-.01a1.528,1.528,0,0,1-1.223-2.059l.963-2.524a1.562,1.562,0,1,0-2.92-1.114L14.589,60a4.653,4.653,0,0,0,3.723,6.269l.074.01a4.739,4.739,0,0,0,4.862-2.549c2.668-5.29,9.925-19.64,11.776-23.3h.913L34.335,50.5a4.455,4.455,0,0,0,3.046,4.945l-17.4,17.4a1.562,1.562,0,0,0,0,2.21l4.481,4.481a1.562,1.562,0,0,0,2.21,0l8.615-8.615a1.562,1.562,0,0,0-2.21-2.21l-7.51,7.51-2.272-2.272L51.93,45.317l5.535,5.535a1.562,1.562,0,0,0,2.21,0l9.359-9.359a1.563,1.563,0,0,0,0-2.21l-.865-.865,8.3-1.671-1.671,8.3-1.286-1.286a1.563,1.563,0,0,0-2.21,0L58.569,56.5l-5.535-5.535a1.563,1.563,0,0,0-2.21,0L41.911,59.88a1.562,1.562,0,1,0,2.21,2.21l7.809-7.809,5.535,5.535a1.563,1.563,0,0,0,2.21,0L72.41,47.08l2.243,2.243a1.563,1.563,0,0,0,2.637-.8L80,35.06A1.563,1.563,0,0,0,79.572,33.647ZM41.1,3.125A4.008,4.008,0,1,1,37.1,7.133,4.013,4.013,0,0,1,41.1,3.125ZM25.644,30.818l-1.9-1.9q1.355-.442,2.658-1.009ZM20.371,25.4a1.211,1.211,0,0,1,.828-1.5,24.371,24.371,0,0,0,7.122-3.374l-.882,3.392a26.945,26.945,0,0,1-5.571,2.307c-.036.01-.074.019-.111.027a1.2,1.2,0,0,1-.819-.141l-.458-.458A1.189,1.189,0,0,1,20.371,25.4Zm-8.685-3.456a.469.469,0,0,1,.663,0l5.7,5.7a4.3,4.3,0,0,0,.934.934L23.9,33.489a.469.469,0,0,1,0,.663L20.81,37.238l-3.432-3.432.654-.654a1.563,1.563,0,0,0,0-2.21l-3.517-3.517a1.563,1.563,0,0,0-2.21,0l-.654.654L8.6,25.028Zm2.139,11a.586.586,0,0,1-.829,0h0l-.478-.478a.586.586,0,0,1,0-.829l.892-.892,1.307,1.307Zm1.69,9.594a.469.469,0,0,1-.663,0L3.305,30.987a.468.468,0,0,1,0-.663l3.086-3.086,3.2,3.2a3.716,3.716,0,0,0,.72,4.237l.478.478h0a3.716,3.716,0,0,0,4.237.72L18.6,39.448ZM37.832,30.351H28.995L32.2,18.013a5.009,5.009,0,0,1,4.846-3.747,4.952,4.952,0,0,1,3.668,1.6,9.633,9.633,0,0,0,11.317,2.178,13.872,13.872,0,0,0,2.615-1.715l.423-.351a1.209,1.209,0,0,1,1.732.193,1.255,1.255,0,0,1-.237,1.71l-.372.309A16.207,16.207,0,0,1,43.31,21.749,1.561,1.561,0,0,0,41.6,22.777l-2.652,7.575Z" transform="translate(-0.043 0)" fill="#fff"/>
      <path id="XMLID_1920_" d="M238.558,408.8a1.563,1.563,0,1,0,1.1.458A1.573,1.573,0,0,0,238.558,408.8Z" transform="translate(-199.975 -344.93)" fill="#fff"/>
      <path id="XMLID_1921_" d="M114.448,327.265a1.561,1.561,0,1,0-1.106-.458A1.574,1.574,0,0,0,114.448,327.265Z" transform="translate(-95.256 -273.497)" fill="#fff"/>
    </g>
  </g>
</svg>
