<svg xmlns="http://www.w3.org/2000/svg" width="52.665" height="80" viewBox="0 0 52.665 80">
  <path id="Path_49" data-name="Path 49" d="M52.662,15.649c0-.017,0-.034,0-.051a1.56,1.56,0,0,0-.025-.2h0a1.64,1.64,0,0,0-.054-.195c-.005-.016-.011-.032-.017-.048a1.689,1.689,0,0,0-.078-.177l0-.009a1.533,1.533,0,0,0-.108-.172l-.031-.042a1.577,1.577,0,0,0-.135-.157L38.068.458a1.577,1.577,0,0,0-.157-.135L37.869.291A1.481,1.481,0,0,0,37.7.184L37.685.178A1.636,1.636,0,0,0,37.512.1L37.462.084A1.6,1.6,0,0,0,37.268.03h0a1.656,1.656,0,0,0-.2-.025l-.051,0-.053,0H1.562A1.562,1.562,0,0,0,0,1.562V68.441A1.562,1.562,0,0,0,1.562,70H25.087v8.434a1.563,1.563,0,0,0,2.393,1.324l5.951-3.734,5.951,3.734a1.562,1.562,0,0,0,2.393-1.324V70H51.1a1.562,1.562,0,0,0,1.562-1.562V15.7C52.665,15.684,52.663,15.666,52.662,15.649ZM38.526,5.335l8.8,8.8h-8.8ZM24.316,48.261a4.8,4.8,0,0,1-.293-.986,4.637,4.637,0,0,1,.805-.583,5.672,5.672,0,0,0,1.646-1.375,5.634,5.634,0,0,0,.816-2,5.052,5.052,0,0,1,.29-.906,1.954,1.954,0,0,1,.387-.028c.174,0,.369.01.575.02.237.012.481.024.736.024a4.43,4.43,0,0,0,1.429-.2,5.893,5.893,0,0,0,1.8-1.111,4,4,0,0,1,.914-.627,3.733,3.733,0,0,1,.929.627,5.9,5.9,0,0,0,1.8,1.111,4.428,4.428,0,0,0,1.429.2c.255,0,.5-.012.735-.024.206-.01.4-.02.576-.02a1.91,1.91,0,0,1,.387.028,5.007,5.007,0,0,1,.289.906,5.636,5.636,0,0,0,.817,2,5.665,5.665,0,0,0,1.646,1.375,4.686,4.686,0,0,1,.8.583,4.832,4.832,0,0,1-.292.986,6.187,6.187,0,0,0-.5,2.146,6.207,6.207,0,0,0,.495,2.147,4.8,4.8,0,0,1,.293.986,4.686,4.686,0,0,1-.8.583A4.461,4.461,0,0,0,39.572,57.5a5.072,5.072,0,0,1-.289.906,1.959,1.959,0,0,1-.387.028c-.175,0-.369-.01-.576-.02-.236-.012-.481-.024-.735-.024a4.428,4.428,0,0,0-1.429.2,5.908,5.908,0,0,0-1.8,1.111,3.893,3.893,0,0,1-.922.627,3.892,3.892,0,0,1-.921-.627,5.915,5.915,0,0,0-1.8-1.111,4.43,4.43,0,0,0-1.429-.2c-.255,0-.5.012-.736.024-.206.01-.4.02-.575.02a1.959,1.959,0,0,1-.387-.028,5.052,5.052,0,0,1-.29-.906,5.623,5.623,0,0,0-.816-2,5.656,5.656,0,0,0-1.646-1.375,4.653,4.653,0,0,1-.8-.583,4.843,4.843,0,0,1,.292-.986,6.187,6.187,0,0,0,.5-2.146A6.2,6.2,0,0,0,24.316,48.261ZM38.65,75.613l-4.388-2.753a1.566,1.566,0,0,0-1.661,0l-4.388,2.753V61.551c.166,0,.329-.011.487-.019.207-.011.4-.021.579-.021a1.532,1.532,0,0,1,.441.041,4.206,4.206,0,0,1,.831.582,4.6,4.6,0,0,0,2.881,1.318,4.6,4.6,0,0,0,2.881-1.318,4.189,4.189,0,0,1,.831-.581,1.542,1.542,0,0,1,.442-.041c.176,0,.372.01.579.02.158.008.321.015.486.019V75.613Zm3.125-8.734V60.292a5.687,5.687,0,0,0,.823-2.013,4.021,4.021,0,0,1,.311-.935,4.055,4.055,0,0,1,.794-.58,4.408,4.408,0,0,0,2.106-2.234,4.514,4.514,0,0,0-.33-3.052,4.221,4.221,0,0,1-.3-1.071,4.218,4.218,0,0,1,.3-1.07,4.516,4.516,0,0,0,.33-3.052A4.409,4.409,0,0,0,43.7,44.051a4.107,4.107,0,0,1-.794-.58,4.038,4.038,0,0,1-.311-.936,4.36,4.36,0,0,0-1.461-2.654,3.713,3.713,0,0,0-2.241-.623c-.253,0-.5.012-.732.024-.207.01-.4.02-.578.02a1.534,1.534,0,0,1-.442-.041,4.171,4.171,0,0,1-.831-.582,4.607,4.607,0,0,0-2.881-1.317A4.605,4.605,0,0,0,30.55,38.68a4.2,4.2,0,0,1-.831.582,1.538,1.538,0,0,1-.442.041c-.176,0-.372-.01-.579-.021-.236-.012-.479-.024-.732-.024a3.709,3.709,0,0,0-2.24.623,4.359,4.359,0,0,0-1.462,2.654,4.054,4.054,0,0,1-.311.935,4.107,4.107,0,0,1-.795.58,4.411,4.411,0,0,0-2.106,2.234,4.516,4.516,0,0,0,.33,3.052,4.218,4.218,0,0,1,.3,1.07,4.221,4.221,0,0,1-.3,1.071,4.516,4.516,0,0,0-.33,3.052,4.414,4.414,0,0,0,2.106,2.234,4.088,4.088,0,0,1,.795.58,4.054,4.054,0,0,1,.311.935,5.684,5.684,0,0,0,.823,2.013v6.586H3.125V3.125H35.4V15.7a1.562,1.562,0,0,0,1.562,1.562H49.54V66.879Zm0,0" transform="translate(0 0)" fill="#fff" fill-rule="evenodd"/>
</svg>
