<svg xmlns="http://www.w3.org/2000/svg" width="81.25" height="80" viewBox="0 0 81.25 80">
  <g id="_002-networking-group" data-name="002-networking-group" transform="translate(0 -3.161)">
    <path id="Path_54" data-name="Path 54" d="M173.457,18.972a7.906,7.906,0,1,0-7.906-7.906A7.915,7.915,0,0,0,173.457,18.972Zm0-11.858a3.953,3.953,0,1,1-3.953,3.953A3.957,3.957,0,0,1,173.457,7.114Z" transform="translate(-132.832)" fill="#fff"/>
    <path id="Path_55" data-name="Path 55" d="M137.527,108.972A1.976,1.976,0,0,0,139.5,107a9.882,9.882,0,1,1,19.764,0,1.976,1.976,0,1,0,3.953,0,13.835,13.835,0,1,0-27.669,0A1.976,1.976,0,0,0,137.527,108.972Z" transform="translate(-108.761 -72.213)" fill="#fff"/>
    <path id="Path_56" data-name="Path 56" d="M37.906,253.752A7.906,7.906,0,1,0,30,245.847,7.914,7.914,0,0,0,37.906,253.752Zm0-11.858a3.953,3.953,0,1,1-3.953,3.953A3.957,3.957,0,0,1,37.906,241.894Z" transform="translate(-24.071 -188.379)" fill="#fff"/>
    <path id="Path_57" data-name="Path 57" d="M13.835,327.941A13.85,13.85,0,0,0,0,341.776a1.976,1.976,0,1,0,3.953,0,9.882,9.882,0,0,1,19.764,0,1.976,1.976,0,1,0,3.953,0A13.85,13.85,0,0,0,13.835,327.941Z" transform="translate(0 -260.591)" fill="#fff"/>
    <path id="Path_58" data-name="Path 58" d="M309.008,253.752a7.906,7.906,0,1,0-7.906-7.906A7.915,7.915,0,0,0,309.008,253.752Zm0-11.858a3.953,3.953,0,1,1-3.953,3.953A3.957,3.957,0,0,1,309.008,241.894Z" transform="translate(-241.593 -188.379)" fill="#fff"/>
    <path id="Path_59" data-name="Path 59" d="M284.937,327.941A13.85,13.85,0,0,0,271.1,341.776a1.976,1.976,0,1,0,3.953,0,9.882,9.882,0,0,1,19.764,0,1.976,1.976,0,1,0,3.953,0A13.85,13.85,0,0,0,284.937,327.941Z" transform="translate(-217.522 -260.591)" fill="#fff"/>
    <path id="Path_60" data-name="Path 60" d="M163.95,194.382l-10.308-5.951v-11.9a1.976,1.976,0,0,0-3.953,0v11.9l-10.308,5.951a1.976,1.976,0,1,0,1.976,3.423l10.308-5.951,10.308,5.951a1.976,1.976,0,1,0,1.976-3.423Z" transform="translate(-111.041 -137.517)" fill="#fff"/>
  </g>
</svg>
