<svg xmlns="http://www.w3.org/2000/svg" width="86.154" height="80" viewBox="0 0 86.154 80">
  <g id="_003-investor" data-name="003-investor" transform="translate(0 -16)">
    <g id="Group_113" data-name="Group 113" transform="translate(21.538 16)">
      <g id="Group_112" data-name="Group 112" transform="translate(0 0)">
        <rect id="Rectangle_47" data-name="Rectangle 47" width="3.077" height="6.154" fill="#fff"/>
      </g>
    </g>
    <g id="Group_115" data-name="Group 115" transform="translate(40 37.538)">
      <g id="Group_114" data-name="Group 114">
        <rect id="Rectangle_48" data-name="Rectangle 48" width="6.154" height="3.077" fill="#fff"/>
      </g>
    </g>
    <g id="Group_117" data-name="Group 117" transform="translate(0 37.538)">
      <g id="Group_116" data-name="Group 116">
        <rect id="Rectangle_49" data-name="Rectangle 49" width="6.154" height="3.077" fill="#fff"/>
      </g>
    </g>
    <g id="Group_119" data-name="Group 119" transform="translate(5.672 21.671)">
      <g id="Group_118" data-name="Group 118">
        <rect id="Rectangle_50" data-name="Rectangle 50" width="3.077" height="6.154" transform="translate(0 2.176) rotate(-45)" fill="#fff"/>
      </g>
    </g>
    <g id="Group_121" data-name="Group 121" transform="translate(33.953 21.674)">
      <g id="Group_120" data-name="Group 120" transform="translate(0 0)">
        <rect id="Rectangle_51" data-name="Rectangle 51" width="6.154" height="3.077" transform="translate(0 4.351) rotate(-45)" fill="#fff"/>
      </g>
    </g>
    <g id="Group_123" data-name="Group 123" transform="translate(4.615 25.197)">
      <g id="Group_122" data-name="Group 122">
        <path id="Path_61" data-name="Path 61" d="M104.288,102.7a2.684,2.684,0,0,0-2.583-1.917H88.615a1.538,1.538,0,0,0-1.537-1.538H62.787l-6.346-2.82A17.64,17.64,0,0,0,48.811,90a13.853,13.853,0,1,0-13.352-.366A17.707,17.707,0,0,0,24,106.168v26.923a1.538,1.538,0,0,0,1.537,1.538H54.769a1.538,1.538,0,0,0,1.538-1.537V109.266l4.363.727a1.564,1.564,0,0,0,.252.021H92.917a12.7,12.7,0,0,0,7.066-2.139l3.22-2.147A2.682,2.682,0,0,0,104.288,102.7ZM42.526,72.887a1.926,1.926,0,0,1,1.86,1.86h3.077A4.934,4.934,0,0,0,44,70.073V67.06a10.755,10.755,0,0,1,0,21.293V86.214a4.933,4.933,0,0,0,3.463-4.672c0-3.48-2.74-4.318-4.554-4.872-2.018-.618-2.372-.906-2.372-1.923A1.926,1.926,0,0,1,42.526,72.887Zm-10.834,4.82A10.778,10.778,0,0,1,40.923,67.06v3.013a4.934,4.934,0,0,0-3.463,4.673c0,3.473,2.737,4.31,4.549,4.865,2.021.619,2.377.908,2.377,1.931a1.926,1.926,0,0,1-3.849,0H37.46a4.933,4.933,0,0,0,3.463,4.672v2.139A10.777,10.777,0,0,1,31.692,77.706Zm53.846,29.231H61.051l-6.029-1.005a1.55,1.55,0,0,0-1.247.344,1.534,1.534,0,0,0-.544,1.173v24.1H27.077V106.168a14.6,14.6,0,0,1,27.013-7.71,1.541,1.541,0,0,0,.681.592l7.066,3.14a1.548,1.548,0,0,0,.625.132H85.538Zm12.737-1.623a9.644,9.644,0,0,1-5.359,1.623h-4.3V103.86h11.842Z" transform="translate(-24 -63.827)" fill="#fff"/>
      </g>
    </g>
    <g id="Group_125" data-name="Group 125" transform="translate(64.615 17.538)">
      <g id="Group_124" data-name="Group 124" transform="translate(0 0)">
        <path id="Path_62" data-name="Path 62" d="M356,40.92h-7.694V36.275a9.732,9.732,0,0,0,6.728-2.391c1.764-1.746,2.536-4.322,2.5-8.358A1.54,1.54,0,0,0,356.028,24c-3.932-.075-6.552.691-8.295,2.416a7.018,7.018,0,0,0-.964,1.214,7.027,7.027,0,0,0-.965-1.214c-1.744-1.725-4.358-2.493-8.295-2.416A1.539,1.539,0,0,0,336,25.526c-.035,4.035.738,6.612,2.5,8.358a9.732,9.732,0,0,0,6.728,2.391V40.92h-7.692A1.538,1.538,0,0,0,336,42.457v6.156a1.538,1.538,0,0,0,1.537,1.538h.2l1.525,10.981a1.538,1.538,0,0,0,1.523,1.327h11.965a1.538,1.538,0,0,0,1.523-1.327L355.8,50.151h.2a1.538,1.538,0,0,0,1.538-1.537V42.458A1.538,1.538,0,0,0,356,40.92ZM349.9,28.6a6.744,6.744,0,0,1,4.525-1.505,6.856,6.856,0,0,1-1.55,4.6,6.744,6.744,0,0,1-4.525,1.505A6.855,6.855,0,0,1,349.9,28.6Zm-4.706,4.6a6.745,6.745,0,0,1-4.525-1.505,6.856,6.856,0,0,1-1.551-4.6,6.745,6.745,0,0,1,4.525,1.505A6.856,6.856,0,0,1,345.192,33.2Zm6.22,26.179h-9.285l-1.283-9.231h11.851Zm3.05-12.308H339.077V44h15.385Z" transform="translate(-336 -23.996)" fill="#fff"/>
      </g>
    </g>
  </g>
</svg>
