<svg xmlns="http://www.w3.org/2000/svg" width="107.787" height="80" viewBox="0 0 107.787 80">
  <g id="_004-juggling" data-name="004-juggling" transform="translate(0.001)">
    <path id="Path_63" data-name="Path 63" d="M320.428,271.363a5.034,5.034,0,0,0-6.241-3.268l-7.5,1.847a4.8,4.8,0,0,0-5.138-3.064c-.53.066-2.291.317-4.157.581-1.765.251-3.59.511-4.083.572a17.715,17.715,0,0,1-3.451-.135c-4.441-.429-11.15-1.077-15.624,6.755a47.607,47.607,0,0,0-4.561,13.556,2.105,2.105,0,0,0,1.724,2.427,2.065,2.065,0,0,0,.354.03,2.1,2.1,0,0,0,2.073-1.754,43.539,43.539,0,0,1,4.066-12.171c3.122-5.467,7.222-5.071,11.562-4.651a20.39,20.39,0,0,0,4.376.122c.53-.066,2.291-.317,4.157-.581,1.765-.251,3.59-.51,4.083-.572a.559.559,0,0,1,.684.39c.124.439-.389.748-.706.893a48.09,48.09,0,0,1-7.367,2.715,2.105,2.105,0,1,0,1.072,4.071,51.677,51.677,0,0,0,8.05-2.959,5.706,5.706,0,0,0,2.218-1.724l9.18-2.261c.656-.164,1.064-.011,1.213.457.077.245.162.851-.729,1.2-.391.147-1.029.412-2.064.856a2.105,2.105,0,1,0,1.66,3.869c.959-.411,1.579-.669,1.9-.789l.021-.008A5.123,5.123,0,0,0,320.428,271.363Zm0,0" transform="translate(-212.882 -210.664)" fill="#fff"/>
    <path id="Path_64" data-name="Path 64" d="M348.556,334.2a15.63,15.63,0,0,1-5.677.6l-6.224-.069h-.024a2.1,2.1,0,0,0-2.044,1.6L333.4,341.16a2.106,2.106,0,0,0,1.543,2.546,2.13,2.13,0,0,0,.5.062,2.107,2.107,0,0,0,2.043-1.6l.785-3.2,4.554.051a19.965,19.965,0,0,0,6.992-.8,2.105,2.105,0,0,0-1.269-4.015Zm0,0" transform="translate(-263.169 -263.768)" fill="#fff"/>
    <path id="Path_65" data-name="Path 65" d="M36.366,283.232a2.108,2.108,0,0,0-2.067-1.6l-6.224.069a16.2,16.2,0,0,1-8.287-1.568c-3.018-1.21-6.815-2.862-9.865-4.189-2.316-1.007-4.148-1.8-4.941-2.1-.891-.349-.807-.956-.729-1.2.15-.468.558-.622,1.222-.455l9.171,2.258a5.691,5.691,0,0,0,2.218,1.724,51.773,51.773,0,0,0,8.05,2.96,2.105,2.105,0,0,0,1.071-4.072,48.161,48.161,0,0,1-7.366-2.715c-.317-.146-.83-.455-.706-.894a.559.559,0,0,1,.684-.389c.493.061,2.318.32,4.083.571,1.866.266,3.627.516,4.157.581a11.213,11.213,0,0,0,1.516.076,2.105,2.105,0,1,0-.046-4.21,6.943,6.943,0,0,1-.951-.044c-.493-.061-2.318-.321-4.083-.572-1.866-.265-3.627-.516-4.158-.581a4.8,4.8,0,0,0-5.137,3.064l-7.487-1.845a5.038,5.038,0,0,0-6.251,3.266,5.125,5.125,0,0,0,3.229,6.405l.021.007c.687.258,2.572,1.079,4.755,2.028,3.076,1.338,6.9,3,9.977,4.236a20.186,20.186,0,0,0,9.9,1.871l4.553-.05.785,3.2a2.106,2.106,0,0,0,2.044,1.6,2.08,2.08,0,0,0,.5-.062,2.1,2.1,0,0,0,1.543-2.546Zm0,0" transform="translate(0 -210.661)" fill="#fff"/>
    <path id="Path_66" data-name="Path 66" d="M205.222,298.985c-.048-.083-.1-.164-.144-.245l-.029-.048a2.105,2.105,0,1,0-3.618,2.153l.031.053c.035.058.069.116.1.176a43.54,43.54,0,0,1,4.066,12.171,2.105,2.105,0,1,0,4.151-.7A47.607,47.607,0,0,0,205.222,298.985Zm0,0" transform="translate(-158.792 -234.999)" fill="#fff"/>
    <path id="Path_67" data-name="Path 67" d="M64.418,176.845A8.421,8.421,0,1,0,56,168.425,8.431,8.431,0,0,0,64.418,176.845Zm0-12.631a4.21,4.21,0,1,1-4.21,4.21A4.215,4.215,0,0,1,64.418,164.214Zm0,0" transform="translate(-44.208 -126.32)" fill="#fff"/>
    <path id="Path_68" data-name="Path 68" d="M232.842,8.421a8.421,8.421,0,1,0-8.422,8.422A8.431,8.431,0,0,0,232.842,8.421Zm-8.422,4.211a4.211,4.211,0,1,1,4.211-4.211A4.216,4.216,0,0,1,224.421,12.632Zm0,0" transform="translate(-170.528)" fill="#fff"/>
    <path id="Path_69" data-name="Path 69" d="M111.284,63.721a8.422,8.422,0,1,0-5.955-2.467A8.367,8.367,0,0,0,111.284,63.721Zm-2.978-11.4a4.212,4.212,0,1,1-1.233,2.977A4.216,4.216,0,0,1,108.306,52.323Zm0,0" transform="translate(-81.209 -37.013)" fill="#fff"/>
    <path id="Path_70" data-name="Path 70" d="M337.561,63.722a8.422,8.422,0,1,0-5.955-2.467A8.367,8.367,0,0,0,337.561,63.722Zm-2.978-11.4a4.212,4.212,0,1,1-1.233,2.977A4.2,4.2,0,0,1,334.584,52.323Zm0,0" transform="translate(-259.85 -37.014)" fill="#fff"/>
    <path id="Path_71" data-name="Path 71" d="M376,168.425A8.421,8.421,0,1,0,384.425,160,8.43,8.43,0,0,0,376,168.425Zm8.421-4.21a4.21,4.21,0,1,1-4.21,4.21A4.215,4.215,0,0,1,384.425,164.214Zm0,0" transform="translate(-296.848 -126.32)" fill="#fff"/>
    <path id="Path_72" data-name="Path 72" d="M437.037,319.4a2.105,2.105,0,1,0,1.659,3.87h0a2.105,2.105,0,0,0-1.66-3.869Zm0,0" transform="translate(-344.025 -252.028)" fill="#fff"/>
    <path id="Path_73" data-name="Path 73" d="M168.124,271.693h0a2.105,2.105,0,1,0,1.654,2.478A2.1,2.1,0,0,0,168.122,271.693Zm0,0" transform="translate(-130.742 -214.464)" fill="#fff"/>
  </g>
</svg>
