<svg id="goal" xmlns="http://www.w3.org/2000/svg" width="79.512" height="80" viewBox="0 0 79.512 80">
  <path id="Path_74" data-name="Path 74" d="M175.936,109.017l-2.194-.857A14.87,14.87,0,0,1,187.6,98.7v2.355a12.517,12.517,0,0,0-11.659,7.962Zm0,0" transform="translate(-146.595 -83.277)" fill="#fff"/>
  <path id="Path_75" data-name="Path 75" d="M208.314,25.132V14.465l2.967,2.968,1.666-1.666-5.811-5.811-5.811,5.811,1.666,1.666,2.967-2.968v9.5a15.35,15.35,0,0,0-8.039-.885A22.383,22.383,0,0,0,178.447,9.234V4.509l2.967,2.967,1.666-1.666L177.269,0l-5.811,5.811,1.666,1.666,2.968-2.967V9.23A22.163,22.163,0,0,0,161.5,15.719l1.664,1.667a19.955,19.955,0,0,1,32.9,7.427l.35.979,1.015-.226a13.022,13.022,0,0,1,8.53.964v.024h.049a13.15,13.15,0,0,1,7.418,11.823,15.689,15.689,0,0,1-3.035,9.017c-1.971,2.655-4.453,4.117-6.987,4.117h-7.467v2.355H203.4c3.3,0,6.452-1.8,8.879-5.068a17.872,17.872,0,0,0,3.5-10.421A15.5,15.5,0,0,0,208.314,25.132Zm0,0" transform="translate(-136.269)" fill="#fff"/>
  <path id="Path_76" data-name="Path 76" d="M278.332,98.7h2.489v2.355h-2.489Zm0,0" transform="translate(-234.843 -83.277)" fill="#fff"/>
  <path id="Path_77" data-name="Path 77" d="M48.534,91.584H30.978V84.118H23.644v21.155H13.622a11.267,11.267,0,1,1,5.723-20.958l1.6.947.173-1.851a19.928,19.928,0,0,1,3.731-9.868l-1.9-1.387A22.288,22.288,0,0,0,19,81.5a13.591,13.591,0,0,0-4.2-1.062V68.227l2.967,2.968,1.666-1.666-5.811-5.811L7.812,69.529l1.666,1.666,2.967-2.968V80.436a13.622,13.622,0,0,0,1.178,27.193H23.644v6.289H26V86.473h2.622v44.933H26V117.651H23.644v16.111h7.334v-4.978H48.534v4.978h7.333V84.118H48.534Zm0,2.355v2.623H30.978V93.94ZM30.978,98.918H48.534v7.6H30.978ZM48.534,111.5H30.978v-2.622H48.534Zm-17.556,2.355H48.534v7.6H30.978Zm0,12.578v-2.623H48.534v2.623ZM50.889,86.473h2.622v44.933H50.889Zm0,0" transform="translate(0 -53.763)" fill="#fff"/>
  <path id="Path_78" data-name="Path 78" d="M373.906,297.809H376.4v2.356h-2.489Zm0,0" transform="translate(-315.483 -251.276)" fill="#fff"/>
  <path id="Path_79" data-name="Path 79" d="M405.762,297.809h2.489v2.356h-2.489Zm0,0" transform="translate(-342.361 -251.276)" fill="#fff"/>
</svg>
