<svg xmlns="http://www.w3.org/2000/svg" width="84.074" height="75" viewBox="0 0 84.074 75">
  <path id="attention" d="M82.955,75.892,49.187,17.405a8.256,8.256,0,0,0-14.3,0L1.12,75.892A8.257,8.257,0,0,0,8.27,88.277H75.805a8.256,8.256,0,0,0,7.15-12.385Zm-40.918,2.87a5.374,5.374,0,1,1,5.374-5.374A5.38,5.38,0,0,1,42.037,78.762Zm5.411-22.973a5.411,5.411,0,1,1-10.821,0V30.957a2.563,2.563,0,0,1,2.563-2.563h5.7a2.563,2.563,0,0,1,2.563,2.563V55.789Z" transform="translate(0 -13.277)" fill="#ff4f00"/>
</svg>
