<svg id="_001-network" data-name="001-network" xmlns="http://www.w3.org/2000/svg" width="80" height="80" viewBox="0 0 80 80">
  <g id="Group_5" data-name="Group 5" transform="translate(69.333 16)">
    <g id="Group_4" data-name="Group 4">
      <path id="Path_2" data-name="Path 2" d="M449.067,102.4a5.333,5.333,0,1,0,5.333,5.333A5.339,5.339,0,0,0,449.067,102.4Zm0,8a2.667,2.667,0,1,1,2.667-2.667A2.669,2.669,0,0,1,449.067,110.4Z" transform="translate(-443.734 -102.4)" fill="#807edb"/>
    </g>
  </g>
  <g id="Group_7" data-name="Group 7" transform="translate(0 60)">
    <g id="Group_6" data-name="Group 6">
      <path id="Path_3" data-name="Path 3" d="M5.333,384a5.333,5.333,0,1,0,5.333,5.333A5.339,5.339,0,0,0,5.333,384Zm0,8A2.667,2.667,0,1,1,8,389.333,2.669,2.669,0,0,1,5.333,392Z" transform="translate(0 -384)" fill="#807edb"/>
    </g>
  </g>
  <g id="Group_9" data-name="Group 9" transform="translate(58.666 11.999)">
    <g id="Group_8" data-name="Group 8">
      <path id="Path_4" data-name="Path 4" d="M388.878,82.478l-11.5-5.553a1.333,1.333,0,1,0-1.159,2.4l11.5,5.553a1.333,1.333,0,0,0,1.159-2.4Z" transform="translate(-375.463 -76.792)" fill="#807edb"/>
    </g>
  </g>
  <g id="Group_11" data-name="Group 11" transform="translate(54.667 69.333)">
    <g id="Group_10" data-name="Group 10">
      <path id="Path_5" data-name="Path 5" d="M355.2,443.733a5.333,5.333,0,1,0,5.333,5.333A5.339,5.339,0,0,0,355.2,443.733Zm0,8a2.667,2.667,0,1,1,2.667-2.667A2.669,2.669,0,0,1,355.2,451.733Z" transform="translate(-349.867 -443.733)" fill="#807edb"/>
    </g>
  </g>
  <g id="Group_13" data-name="Group 13" transform="translate(43.999 65.332)">
    <g id="Group_12" data-name="Group 12">
      <path id="Path_6" data-name="Path 6" d="M295.011,423.811l-11.5-5.553a1.333,1.333,0,0,0-1.159,2.4l11.5,5.553a1.333,1.333,0,1,0,1.159-2.4Z" transform="translate(-281.596 -418.124)" fill="#807edb"/>
    </g>
  </g>
  <g id="Group_15" data-name="Group 15" transform="translate(34.667 36)">
    <g id="Group_14" data-name="Group 14">
      <path id="Path_7" data-name="Path 7" d="M227.2,230.4a5.333,5.333,0,1,0,5.333,5.333A5.339,5.339,0,0,0,227.2,230.4Zm0,8a2.667,2.667,0,1,1,2.667-2.667A2.669,2.669,0,0,1,227.2,238.4Z" transform="translate(-221.867 -230.4)" fill="#807edb"/>
    </g>
  </g>
  <g id="Group_17" data-name="Group 17" transform="translate(26.666 30.667)">
    <g id="Group_16" data-name="Group 16">
      <path id="Path_8" data-name="Path 8" d="M181.654,203.439l-8.836-6.887a1.334,1.334,0,1,0-1.64,2.1l8.836,6.887a1.334,1.334,0,1,0,1.64-2.1Z" transform="translate(-170.664 -196.272)" fill="#807edb"/>
    </g>
  </g>
  <g id="Group_19" data-name="Group 19" transform="translate(49.333 34.667)">
    <g id="Group_18" data-name="Group 18">
      <path id="Path_9" data-name="Path 9" d="M330.4,221.867a14.667,14.667,0,1,0,14.667,14.667A14.684,14.684,0,0,0,330.4,221.867Zm0,26.667a12,12,0,1,1,12-12A12.013,12.013,0,0,1,330.4,248.534Z" transform="translate(-315.733 -221.867)" fill="#807edb"/>
    </g>
  </g>
  <g id="Group_21" data-name="Group 21" transform="translate(58.667 40)">
    <g id="Group_20" data-name="Group 20">
      <path id="Path_10" data-name="Path 10" d="M380.8,256a5.333,5.333,0,1,0,5.333,5.333A5.339,5.339,0,0,0,380.8,256Zm0,8a2.667,2.667,0,1,1,2.667-2.667A2.669,2.669,0,0,1,380.8,264Z" transform="translate(-375.467 -256)" fill="#807edb"/>
    </g>
  </g>
  <g id="Group_23" data-name="Group 23" transform="translate(56 53.333)">
    <g id="Group_22" data-name="Group 22">
      <path id="Path_11" data-name="Path 11" d="M370.268,341.333h-7.736a4.082,4.082,0,0,0-4.132,4.02v3.515a1.334,1.334,0,0,0,.665,1.155,14.592,14.592,0,0,0,14.669,0,1.332,1.332,0,0,0,.665-1.153v-3.515A4.082,4.082,0,0,0,370.268,341.333Zm1.465,6.74a12.09,12.09,0,0,1-10.667,0v-2.719A1.415,1.415,0,0,1,362.532,344h7.736a1.415,1.415,0,0,1,1.465,1.355v2.719Z" transform="translate(-358.4 -341.333)" fill="#807edb"/>
    </g>
  </g>
  <g id="Group_25" data-name="Group 25" transform="translate(17.333 50.667)">
    <g id="Group_24" data-name="Group 24">
      <path id="Path_12" data-name="Path 12" d="M125.6,324.267a14.667,14.667,0,1,0,14.667,14.667A14.684,14.684,0,0,0,125.6,324.267Zm0,26.667a12,12,0,1,1,12-12A12.013,12.013,0,0,1,125.6,350.934Z" transform="translate(-110.933 -324.267)" fill="#807edb"/>
    </g>
  </g>
  <g id="Group_27" data-name="Group 27" transform="translate(26.667 56)">
    <g id="Group_26" data-name="Group 26">
      <path id="Path_13" data-name="Path 13" d="M176,358.4a5.333,5.333,0,1,0,5.333,5.333A5.339,5.339,0,0,0,176,358.4Zm0,8a2.667,2.667,0,1,1,2.667-2.667A2.669,2.669,0,0,1,176,366.4Z" transform="translate(-170.667 -358.4)" fill="#807edb"/>
    </g>
  </g>
  <g id="Group_29" data-name="Group 29" transform="translate(24 69.333)">
    <g id="Group_28" data-name="Group 28">
      <path id="Path_14" data-name="Path 14" d="M165.468,443.733h-7.736a4.082,4.082,0,0,0-4.132,4.02v3.515a1.335,1.335,0,0,0,.665,1.155,14.592,14.592,0,0,0,14.669,0,1.332,1.332,0,0,0,.665-1.153v-3.515A4.082,4.082,0,0,0,165.468,443.733Zm1.465,6.74a12.09,12.09,0,0,1-10.667,0v-2.719a1.415,1.415,0,0,1,1.465-1.355h7.736a1.415,1.415,0,0,1,1.465,1.355v2.719Z" transform="translate(-153.6 -443.733)" fill="#807edb"/>
    </g>
  </g>
  <g id="Group_31" data-name="Group 31" transform="translate(0 17.333)">
    <g id="Group_30" data-name="Group 30">
      <path id="Path_15" data-name="Path 15" d="M14.667,110.933A14.667,14.667,0,1,0,29.333,125.6,14.684,14.684,0,0,0,14.667,110.933Zm0,26.667a12,12,0,1,1,12-12A12.013,12.013,0,0,1,14.667,137.6Z" transform="translate(0 -110.933)" fill="#807edb"/>
    </g>
  </g>
  <g id="Group_33" data-name="Group 33" transform="translate(9.333 22.667)">
    <g id="Group_32" data-name="Group 32">
      <path id="Path_16" data-name="Path 16" d="M65.067,145.067A5.333,5.333,0,1,0,70.4,150.4,5.339,5.339,0,0,0,65.067,145.067Zm0,8a2.667,2.667,0,1,1,2.667-2.667A2.669,2.669,0,0,1,65.067,153.067Z" transform="translate(-59.734 -145.067)" fill="#807edb"/>
    </g>
  </g>
  <g id="Group_35" data-name="Group 35" transform="translate(6.667 36)">
    <g id="Group_34" data-name="Group 34">
      <path id="Path_17" data-name="Path 17" d="M54.535,230.4H46.8a4.082,4.082,0,0,0-4.132,4.02v3.515a1.334,1.334,0,0,0,.665,1.155,14.592,14.592,0,0,0,14.669,0,1.332,1.332,0,0,0,.665-1.153v-3.515A4.082,4.082,0,0,0,54.535,230.4ZM56,237.14a12.09,12.09,0,0,1-10.667,0v-2.719a1.415,1.415,0,0,1,1.465-1.355h7.736A1.415,1.415,0,0,1,56,234.421v2.719Z" transform="translate(-42.667 -230.4)" fill="#807edb"/>
    </g>
  </g>
  <g id="Group_37" data-name="Group 37" transform="translate(32)">
    <g id="Group_36" data-name="Group 36">
      <path id="Path_18" data-name="Path 18" d="M219.467,0a14.667,14.667,0,1,0,14.667,14.667A14.684,14.684,0,0,0,219.467,0Zm0,26.667a12,12,0,1,1,12-12A12.013,12.013,0,0,1,219.467,26.667Z" transform="translate(-204.8)" fill="#807edb"/>
    </g>
  </g>
  <g id="Group_39" data-name="Group 39" transform="translate(41.333 5.333)">
    <g id="Group_38" data-name="Group 38">
      <path id="Path_19" data-name="Path 19" d="M269.867,34.133a5.333,5.333,0,1,0,5.333,5.333A5.339,5.339,0,0,0,269.867,34.133Zm0,8a2.667,2.667,0,1,1,2.667-2.667A2.669,2.669,0,0,1,269.867,42.133Z" transform="translate(-264.534 -34.133)" fill="#807edb"/>
    </g>
  </g>
  <g id="Group_41" data-name="Group 41" transform="translate(38.667 18.667)">
    <g id="Group_40" data-name="Group 40">
      <path id="Path_20" data-name="Path 20" d="M259.335,119.467H251.6a4.082,4.082,0,0,0-4.132,4.02V127a1.334,1.334,0,0,0,.665,1.155,14.592,14.592,0,0,0,14.669,0,1.332,1.332,0,0,0,.665-1.153v-3.515A4.082,4.082,0,0,0,259.335,119.467Zm1.465,6.74a12.09,12.09,0,0,1-10.667,0v-2.719a1.415,1.415,0,0,1,1.465-1.355h7.736a1.415,1.415,0,0,1,1.465,1.355v2.719Z" transform="translate(-247.467 -119.467)" fill="#807edb"/>
    </g>
  </g>
  <g id="Group_43" data-name="Group 43" transform="translate(22.761 13.333)">
    <g id="Group_42" data-name="Group 42">
      <path id="Path_21" data-name="Path 21" d="M157.258,85.8a1.335,1.335,0,0,0-1.88-.145l-9.24,7.907a1.333,1.333,0,1,0,1.733,2.025l9.24-7.907A1.333,1.333,0,0,0,157.258,85.8Z" transform="translate(-145.671 -85.333)" fill="#807edb"/>
    </g>
  </g>
  <g id="Group_45" data-name="Group 45" transform="translate(53.333 24.002)">
    <g id="Group_44" data-name="Group 44">
      <path id="Path_22" data-name="Path 22" d="M351.733,164.81l-8-10.667a1.333,1.333,0,0,0-2.133,1.6l8,10.667a1.333,1.333,0,0,0,2.133-1.6Z" transform="translate(-341.333 -153.61)" fill="#807edb"/>
    </g>
  </g>
  <g id="Group_47" data-name="Group 47" transform="translate(42.943 53.209)">
    <g id="Group_46" data-name="Group 46">
      <path id="Path_23" data-name="Path 23" d="M284.681,341.073a1.334,1.334,0,0,0-1.867-.267l-7.448,5.585a1.333,1.333,0,0,0,1.6,2.132l7.448-5.585A1.332,1.332,0,0,0,284.681,341.073Z" transform="translate(-274.833 -340.54)" fill="#807edb"/>
    </g>
  </g>
  <g id="Group_49" data-name="Group 49" transform="translate(8 64)">
    <g id="Group_48" data-name="Group 48">
      <path id="Path_24" data-name="Path 24" d="M61.867,409.6H52.533a1.333,1.333,0,1,0,0,2.667h9.333a1.333,1.333,0,0,0,0-2.667Z" transform="translate(-51.2 -409.6)" fill="#807edb"/>
    </g>
  </g>
  <g id="Group_51" data-name="Group 51" transform="translate(9.333)">
    <g id="Group_50" data-name="Group 50">
      <path id="Path_25" data-name="Path 25" d="M65.066,0A5.333,5.333,0,1,0,70.4,5.333,5.339,5.339,0,0,0,65.066,0Zm0,8a2.667,2.667,0,1,1,2.667-2.667A2.669,2.669,0,0,1,65.066,8Z" transform="translate(-59.733)" fill="#807edb"/>
    </g>
  </g>
  <g id="Group_53" data-name="Group 53" transform="translate(13.333 8)">
    <g id="Group_52" data-name="Group 52">
      <path id="Path_26" data-name="Path 26" d="M86.667,51.2a1.333,1.333,0,0,0-1.333,1.333v9.333a1.333,1.333,0,1,0,2.667,0V52.533A1.333,1.333,0,0,0,86.667,51.2Z" transform="translate(-85.334 -51.2)" fill="#807edb"/>
    </g>
  </g>
</svg>
