<svg xmlns="http://www.w3.org/2000/svg" width="80" height="80" viewBox="0 0 80 80">
  <path id="_002-preparing-meeting" data-name="002-preparing-meeting" d="M6.762,38.587H31.8V43.4a1.1,1.1,0,0,0,1.1,1.111H47.1A1.1,1.1,0,0,0,48.2,43.4V38.587H72.183a1.1,1.1,0,0,0,1.1-1.111V1.593a1.1,1.1,0,0,0-1.1-1.111H6.762a1.1,1.1,0,0,0-1.1,1.111V37.476A1.1,1.1,0,0,0,6.762,38.587Zm39.243,3.7H33.99v-3.7H46.005Zm1.1-5.926H7.858V32.1h63.23v4.259H47.1ZM71.087,2.7V29.882H7.858V2.7ZM14.893,17.15a9.061,9.061,0,0,1,9-9.121V17.15h9a9,9,0,1,1-18,0Zm31.112,9.121V18.909a1.1,1.1,0,1,1,2.193,0v7.362a1.1,1.1,0,1,1-2.193,0Zm3.426,0V16.131a1.1,1.1,0,1,1,2.193,0v10.14a1.1,1.1,0,1,1-2.193,0Zm3.426,0V12.1a1.1,1.1,0,1,1,2.193,0V26.271a1.1,1.1,0,1,1-2.193,0Zm3.426,0V11.408a1.1,1.1,0,1,1,2.193,0V26.271a1.1,1.1,0,1,1-2.193,0Zm3.426,0V7.38a1.1,1.1,0,1,1,2.193,0v18.89a1.1,1.1,0,1,1-2.193,0ZM79.928,65.123l-6.67-18.195a1.1,1.1,0,0,0-1.028-.724H7.766a1.1,1.1,0,0,0-1.028.724L.069,65.123A1.106,1.106,0,0,0,0,65.51V72.56a1.1,1.1,0,0,0,1.1,1.111H2.674c-1.1,2.906-2,5.248-2.02,5.3a1.115,1.115,0,0,0,.623,1.439,1.091,1.091,0,0,0,1.42-.631c.037-.1,3.771-9.792,5.37-14.38a7.191,7.191,0,0,1,9.009-4.783c.833.252,3.491,1.3,2.707,4.087-1.572,4.576-4.536,14.245-4.566,14.342a1.113,1.113,0,0,0,.723,1.39,1.069,1.069,0,0,0,.326.05,1.1,1.1,0,0,0,1.047-.782c.015-.051.855-2.788,1.874-6.029H60.814c1.018,3.236,1.857,5.978,1.873,6.029a1.091,1.091,0,0,0,1.373.732,1.115,1.115,0,0,0,.723-1.39c-.03-.1-2.992-9.766-4.546-14.283-.8-2.848,1.854-3.894,2.689-4.146a7.2,7.2,0,0,1,9.022,4.821c1.587,4.548,5.32,14.243,5.357,14.341a1.093,1.093,0,0,0,1.42.631,1.115,1.115,0,0,0,.623-1.439c-.019-.048-.922-2.394-2.021-5.3H78.9A1.1,1.1,0,0,0,80,72.56V65.51A1.19,1.19,0,0,0,79.928,65.123ZM2.193,71.447V66.62H5.3c-.534,1.471-1.164,3.168-1.787,4.827ZM17.7,58.483a9.675,9.675,0,0,0-5.809.1l2.091-5.213c.007-.013.685-1.355,4.06-1.355a18.627,18.627,0,0,1,4.5.366c.041.012.1.026.138.034a1.475,1.475,0,0,1,.92.632,2.62,2.62,0,0,1-.138,1.988,1.116,1.116,0,0,0,.63,1.436,1.094,1.094,0,0,0,1.417-.639,6.609,6.609,0,0,0,.365-1.47c1.037.081,1.379.31,1.47.421.318.392.042,1.771-.251,3.231L26.9,59c-.464,2.421-4.1,2.359-5.478,2.245A6.252,6.252,0,0,0,17.7,58.483ZM60.109,71.447H19.887c.541-1.7,1.087-3.4,1.564-4.827h37.1C59.019,68.043,59.567,69.742,60.109,71.447Zm2.184-12.964a6.217,6.217,0,0,0-3.71,2.754c-1.371.107-5.026.16-5.486-2.24l-.194-.985c-.293-1.459-.569-2.838-.251-3.23.09-.111.42-.323,1.47-.411a6.587,6.587,0,0,0,.364,1.46,1.092,1.092,0,0,0,1.417.639,1.115,1.115,0,0,0,.63-1.436,2.62,2.62,0,0,1-.138-1.988,1.475,1.475,0,0,1,.907-.63,1.009,1.009,0,0,0,.141-.033,18.488,18.488,0,0,1,4.509-.369c3.376,0,4.054,1.341,4.056,1.345l2.1,5.227A9.649,9.649,0,0,0,62.293,58.483Zm8.868,1.826-3.111-7.752c-.1-.282-1.144-2.766-6.1-2.766a20.359,20.359,0,0,0-5.082.446A3.629,3.629,0,0,0,54.5,51.926c-.035.062-.048.133-.079.2-1.723.076-2.814.443-3.465,1.248-.98,1.209-.653,2.834-.2,5.083l.191.966c.618,3.231,3.883,4.1,6.592,4.1.138,0,.266-.011.4-.016a5.522,5.522,0,0,0,.015.891H22.05a5.514,5.514,0,0,0,.02-.89c.132,0,.257.016.391.016,2.709,0,5.972-.872,6.592-4.1l.191-.965c.452-2.249.777-3.875-.2-5.084-.652-.806-1.714-1.17-3.465-1.248-.031-.064-.044-.136-.079-.2a3.629,3.629,0,0,0-2.368-1.689,20.3,20.3,0,0,0-5.082-.446c-4.957,0-6,2.484-6.086,2.73L8.841,60.3a9.227,9.227,0,0,0-2.747,4.1H2.673L8.528,48.427H71.467L77.324,64.4H73.9A9.306,9.306,0,0,0,71.161,60.309Zm5.322,11.139c-.624-1.661-1.255-3.36-1.787-4.827H77.8v4.827Z" transform="translate(0 -0.482)" fill="#807edb"/>
</svg>
