<svg id="_003-flowchart" data-name="003-flowchart" xmlns="http://www.w3.org/2000/svg" width="80" height="80" viewBox="0 0 80 80">
  <path id="Path_27" data-name="Path 27" d="M76,17.333a4,4,0,0,0-4-4H61.333V8a4,4,0,0,0-4-4h-8a4,4,0,0,0-4-4H26.667a4,4,0,0,0-4,4H17.333a4,4,0,0,0-4,4v6.667H4a4,4,0,0,0-4,4v2.667a4,4,0,0,0,4,4h9.333v8H8a4,4,0,0,0-4,4v1.333a4,4,0,0,0,4,4H20a4,4,0,0,0,4-4V37.333a4,4,0,0,0-4-4H16v-8H29.333a4,4,0,0,0,4-4V18.667a4,4,0,0,0-4-4H16V8a1.334,1.334,0,0,1,1.333-1.333h5.333a4,4,0,0,0,4,4H45.333a4,4,0,0,0,4-4h8A1.334,1.334,0,0,1,58.667,8v5.333h-12a4,4,0,0,0-4,4V20a4,4,0,0,0,4,4h4V36H40a4,4,0,0,0-4,4V64a4,4,0,0,0,4,4H64a4,4,0,0,0,4-4V40a4,4,0,0,0-4-4H53.333V24H72a4,4,0,0,0,4-4Zm-54.667,20v1.333A1.334,1.334,0,0,1,20,40H8a1.334,1.334,0,0,1-1.333-1.333V37.333A1.334,1.334,0,0,1,8,36H20A1.334,1.334,0,0,1,21.333,37.333Zm9.333-18.667v2.667a1.334,1.334,0,0,1-1.333,1.333H4a1.334,1.334,0,0,1-1.333-1.333V18.667A1.334,1.334,0,0,1,4,17.333H29.333A1.334,1.334,0,0,1,30.667,18.667Zm16-12A1.334,1.334,0,0,1,45.333,8H26.667a1.334,1.334,0,0,1-1.333-1.333V4a1.334,1.334,0,0,1,1.333-1.333H45.333A1.334,1.334,0,0,1,46.667,4ZM65.333,40V64A1.334,1.334,0,0,1,64,65.333H40A1.334,1.334,0,0,1,38.667,64V40A1.334,1.334,0,0,1,40,38.667H64A1.334,1.334,0,0,1,65.333,40Zm8-20A1.334,1.334,0,0,1,72,21.333H46.667A1.334,1.334,0,0,1,45.333,20V17.333A1.334,1.334,0,0,1,46.667,16H72a1.334,1.334,0,0,1,1.333,1.333Zm0,0" fill="#807edb"/>
  <path id="Path_28" data-name="Path 28" d="M274.667,266.667h2.667v2.667H280v-2.667h2.667A2.67,2.67,0,0,0,285.333,264v-4a2.67,2.67,0,0,0-2.667-2.667H280v-4h2.667v1.333h2.667v-1.333a2.67,2.67,0,0,0-2.667-2.667H280V248h-2.667v2.667h-2.667A2.67,2.67,0,0,0,272,253.333v4A2.67,2.67,0,0,0,274.667,260h2.667v4h-2.667v-1.333H272V264A2.67,2.67,0,0,0,274.667,266.667Zm0-9.333v-4h2.667v4ZM280,260h2.667v4H280Zm0,0" transform="translate(-226.667 -206.667)" fill="#807edb"/>
  <path id="Path_29" data-name="Path 29" d="M304,456h2.667v4H304Zm0,0" transform="translate(-253.333 -380)" fill="#807edb"/>
  <path id="Path_30" data-name="Path 30" d="M187.547,410.993l2.829-2.829,1.885,1.885-2.829,2.829Zm0,0" transform="translate(-156.289 -340.137)" fill="#807edb"/>
  <path id="Path_31" data-name="Path 31" d="M144,304h4v2.667h-4Zm0,0" transform="translate(-120 -253.333)" fill="#807edb"/>
  <path id="Path_32" data-name="Path 32" d="M187.547,189.432l1.885-1.885,2.829,2.829-1.885,1.885Zm0,0" transform="translate(-156.289 -156.289)" fill="#807edb"/>
  <path id="Path_33" data-name="Path 33" d="M408.164,190.376l2.829-2.829,1.885,1.885-2.829,2.829Zm0,0" transform="translate(-340.137 -156.289)" fill="#807edb"/>
  <path id="Path_34" data-name="Path 34" d="M456,304h4v2.667h-4Zm0,0" transform="translate(-380 -253.333)" fill="#807edb"/>
  <path id="Path_35" data-name="Path 35" d="M410.469,407.747l1.844-1.927,2.889,2.766-1.844,1.927Zm0,0" transform="translate(-342.057 -338.184)" fill="#807edb"/>
</svg>
