<svg xmlns="http://www.w3.org/2000/svg" width="62.667" height="80" viewBox="0 0 62.667 80">
  <g id="_004-list" data-name="004-list" transform="translate(-6.5)">
    <path id="Path_36" data-name="Path 36" d="M49.719,0H6.5V80H69.167V19.448ZM50.5,4.552,64.615,18.667H50.5ZM9.167,77.333V2.667H47.833V21.333H66.5v56Z" fill="#807edb"/>
    <path id="Path_37" data-name="Path 37" d="M48.167,21H26.833a1.333,1.333,0,1,0,0,2.667H48.167a1.333,1.333,0,1,0,0-2.667Z" transform="translate(6.333 7)" fill="#807edb"/>
    <path id="Path_38" data-name="Path 38" d="M25.333,18.292,19.6,22.88l-1.823-1.823a1.333,1.333,0,1,0-1.885,1.885l2.667,2.667a1.332,1.332,0,0,0,1.775.1L27,20.375a1.333,1.333,0,0,0-1.665-2.083Z" transform="translate(3 6)" fill="#807edb"/>
    <path id="Path_39" data-name="Path 39" d="M48.167,32H26.833a1.333,1.333,0,1,0,0,2.667H48.167a1.333,1.333,0,1,0,0-2.667Z" transform="translate(6.333 10.667)" fill="#807edb"/>
    <path id="Path_40" data-name="Path 40" d="M25.333,29.292,19.6,33.88l-1.823-1.823a1.333,1.333,0,1,0-1.885,1.885l2.667,2.667a1.332,1.332,0,0,0,1.775.1L27,31.375a1.333,1.333,0,0,0-1.665-2.083Z" transform="translate(3 9.667)" fill="#807edb"/>
    <path id="Path_41" data-name="Path 41" d="M48.167,43H26.833a1.333,1.333,0,0,0,0,2.667H48.167a1.333,1.333,0,1,0,0-2.667Z" transform="translate(6.333 14.333)" fill="#807edb"/>
    <path id="Path_42" data-name="Path 42" d="M25.333,40.292,19.6,44.88l-1.823-1.823a1.333,1.333,0,0,0-1.885,1.885l2.667,2.667a1.332,1.332,0,0,0,1.775.1L27,42.375a1.333,1.333,0,0,0-1.665-2.083Z" transform="translate(3 13.333)" fill="#807edb"/>
  </g>
</svg>
