<svg id="_005-enterprise" data-name="005-enterprise" xmlns="http://www.w3.org/2000/svg" width="80" height="80" viewBox="0 0 80 80">
  <g id="Group_55" data-name="Group 55" transform="translate(28 26.667)">
    <g id="Group_54" data-name="Group 54">
      <rect id="Rectangle_14" data-name="Rectangle 14" width="2.667" height="2.667" fill="#807edb"/>
    </g>
  </g>
  <g id="Group_57" data-name="Group 57" transform="translate(28 32)">
    <g id="Group_56" data-name="Group 56">
      <rect id="Rectangle_15" data-name="Rectangle 15" width="2.667" height="2.667" fill="#807edb"/>
    </g>
  </g>
  <g id="Group_59" data-name="Group 59" transform="translate(28 37.333)">
    <g id="Group_58" data-name="Group 58">
      <rect id="Rectangle_16" data-name="Rectangle 16" width="2.667" height="2.667" fill="#807edb"/>
    </g>
  </g>
  <g id="Group_61" data-name="Group 61" transform="translate(28 42.667)">
    <g id="Group_60" data-name="Group 60">
      <rect id="Rectangle_17" data-name="Rectangle 17" width="2.667" height="2.667" fill="#807edb"/>
    </g>
  </g>
  <g id="Group_63" data-name="Group 63" transform="translate(33.333 26.667)">
    <g id="Group_62" data-name="Group 62">
      <rect id="Rectangle_18" data-name="Rectangle 18" width="2.667" height="2.667" fill="#807edb"/>
    </g>
  </g>
  <g id="Group_65" data-name="Group 65" transform="translate(33.333 32)">
    <g id="Group_64" data-name="Group 64">
      <rect id="Rectangle_19" data-name="Rectangle 19" width="2.667" height="2.667" fill="#807edb"/>
    </g>
  </g>
  <g id="Group_67" data-name="Group 67" transform="translate(33.333 37.333)">
    <g id="Group_66" data-name="Group 66">
      <rect id="Rectangle_20" data-name="Rectangle 20" width="2.667" height="2.667" fill="#807edb"/>
    </g>
  </g>
  <g id="Group_69" data-name="Group 69" transform="translate(33.333 42.667)">
    <g id="Group_68" data-name="Group 68">
      <rect id="Rectangle_21" data-name="Rectangle 21" width="2.667" height="2.667" fill="#807edb"/>
    </g>
  </g>
  <g id="Group_71" data-name="Group 71" transform="translate(38.667 26.667)">
    <g id="Group_70" data-name="Group 70">
      <rect id="Rectangle_22" data-name="Rectangle 22" width="2.667" height="2.667" fill="#807edb"/>
    </g>
  </g>
  <g id="Group_73" data-name="Group 73" transform="translate(38.667 32)">
    <g id="Group_72" data-name="Group 72">
      <rect id="Rectangle_23" data-name="Rectangle 23" width="2.667" height="2.667" fill="#807edb"/>
    </g>
  </g>
  <g id="Group_75" data-name="Group 75" transform="translate(38.667 37.333)">
    <g id="Group_74" data-name="Group 74">
      <rect id="Rectangle_24" data-name="Rectangle 24" width="2.667" height="2.667" fill="#807edb"/>
    </g>
  </g>
  <g id="Group_77" data-name="Group 77" transform="translate(38.667 42.667)">
    <g id="Group_76" data-name="Group 76">
      <rect id="Rectangle_25" data-name="Rectangle 25" width="2.667" height="2.667" fill="#807edb"/>
    </g>
  </g>
  <g id="Group_79" data-name="Group 79" transform="translate(44 26.667)">
    <g id="Group_78" data-name="Group 78">
      <rect id="Rectangle_26" data-name="Rectangle 26" width="2.667" height="2.667" fill="#807edb"/>
    </g>
  </g>
  <g id="Group_81" data-name="Group 81" transform="translate(33.333 21.333)">
    <g id="Group_80" data-name="Group 80">
      <rect id="Rectangle_27" data-name="Rectangle 27" width="2.667" height="2.667" fill="#807edb"/>
    </g>
  </g>
  <g id="Group_83" data-name="Group 83" transform="translate(38.667 21.333)">
    <g id="Group_82" data-name="Group 82">
      <rect id="Rectangle_28" data-name="Rectangle 28" width="2.667" height="2.667" fill="#807edb"/>
    </g>
  </g>
  <g id="Group_85" data-name="Group 85" transform="translate(44 21.333)">
    <g id="Group_84" data-name="Group 84">
      <rect id="Rectangle_29" data-name="Rectangle 29" width="2.667" height="2.667" fill="#807edb"/>
    </g>
  </g>
  <g id="Group_87" data-name="Group 87" transform="translate(44 32)">
    <g id="Group_86" data-name="Group 86">
      <rect id="Rectangle_30" data-name="Rectangle 30" width="2.667" height="2.667" fill="#807edb"/>
    </g>
  </g>
  <g id="Group_89" data-name="Group 89" transform="translate(44 37.333)">
    <g id="Group_88" data-name="Group 88">
      <rect id="Rectangle_31" data-name="Rectangle 31" width="2.667" height="2.667" fill="#807edb"/>
    </g>
  </g>
  <g id="Group_91" data-name="Group 91" transform="translate(44 42.667)">
    <g id="Group_90" data-name="Group 90">
      <rect id="Rectangle_32" data-name="Rectangle 32" width="2.667" height="2.667" fill="#807edb"/>
    </g>
  </g>
  <g id="Group_93" data-name="Group 93" transform="translate(49.333 26.667)">
    <g id="Group_92" data-name="Group 92">
      <rect id="Rectangle_33" data-name="Rectangle 33" width="2.667" height="2.667" fill="#807edb"/>
    </g>
  </g>
  <g id="Group_95" data-name="Group 95" transform="translate(49.333 32)">
    <g id="Group_94" data-name="Group 94">
      <rect id="Rectangle_34" data-name="Rectangle 34" width="2.667" height="2.667" fill="#807edb"/>
    </g>
  </g>
  <g id="Group_97" data-name="Group 97" transform="translate(49.333 37.333)">
    <g id="Group_96" data-name="Group 96">
      <rect id="Rectangle_35" data-name="Rectangle 35" width="2.667" height="2.667" fill="#807edb"/>
    </g>
  </g>
  <g id="Group_99" data-name="Group 99" transform="translate(49.333 42.667)">
    <g id="Group_98" data-name="Group 98">
      <rect id="Rectangle_36" data-name="Rectangle 36" width="2.667" height="2.667" fill="#807edb"/>
    </g>
  </g>
  <g id="Group_101" data-name="Group 101" transform="translate(0 0)">
    <g id="Group_100" data-name="Group 100">
      <path id="Path_43" data-name="Path 43" d="M78.668,20h-20V1.333A1.333,1.333,0,0,0,57.335,0H22.667a1.333,1.333,0,0,0-1.333,1.332h0V20h-20A1.333,1.333,0,0,0,0,21.332H0v48a1.333,1.333,0,0,0,1.332,1.333H4.12A8,8,0,0,0,4,72v6.667A1.333,1.333,0,0,0,5.332,80H74.667A1.333,1.333,0,0,0,76,78.668h0V72a7.966,7.966,0,0,0-.121-1.333h2.787A1.333,1.333,0,0,0,80,69.335v-48A1.333,1.333,0,0,0,78.668,20ZM57.333,57.333a2.667,2.667,0,1,1-2.667-2.667A2.667,2.667,0,0,1,57.333,57.333Zm-32-2.667a2.667,2.667,0,1,1-2.667,2.667A2.667,2.667,0,0,1,25.333,54.667Zm-8,22.667H6.667V72a5.333,5.333,0,0,1,10.667,0Zm-8-16A2.667,2.667,0,1,1,12,64,2.667,2.667,0,0,1,9.333,61.333Zm8.2,4.9A8.037,8.037,0,0,0,15.858,65a5.333,5.333,0,1,0-7.716,0,8.052,8.052,0,0,0-3.06,3H2.667V22.667H21.333V53.843A5.261,5.261,0,0,0,21.475,61,8.023,8.023,0,0,0,17.535,66.237Zm13.131,11.1H20V68a5.333,5.333,0,0,1,10.667,0Zm16,0H33.333V68a6.667,6.667,0,0,1,13.333,0ZM36,54.667a4,4,0,1,1,4,4A4,4,0,0,1,36,54.667Zm12.12,8.749a9.392,9.392,0,0,0-3.826-3.693,6.667,6.667,0,1,0-8.59,0,9.392,9.392,0,0,0-3.825,3.693A8.053,8.053,0,0,0,29.191,61,5.3,5.3,0,0,0,24,52.189V2.667H56V52.189A5.31,5.31,0,0,0,50.809,61,8.053,8.053,0,0,0,48.12,63.416ZM60,72v5.333H49.333V68A5.333,5.333,0,0,1,60,68Zm13.333,5.333H62.667V72a5.333,5.333,0,0,1,10.667,0Zm-8-16A2.667,2.667,0,1,1,68,64,2.667,2.667,0,0,1,65.333,61.333Zm12,6.667H74.918a8.052,8.052,0,0,0-3.06-3,5.333,5.333,0,1,0-7.716,0,8.033,8.033,0,0,0-1.677,1.242A8.022,8.022,0,0,0,58.525,61a5.261,5.261,0,0,0,.142-7.153V22.667H77.333V68Z" transform="translate(0 0)" fill="#807edb"/>
    </g>
  </g>
  <g id="Group_103" data-name="Group 103" transform="translate(62.667 30.667)">
    <g id="Group_102" data-name="Group 102">
      <rect id="Rectangle_37" data-name="Rectangle 37" width="2.667" height="21.333" fill="#807edb"/>
    </g>
  </g>
  <g id="Group_105" data-name="Group 105" transform="translate(70.667 30.667)">
    <g id="Group_104" data-name="Group 104">
      <rect id="Rectangle_38" data-name="Rectangle 38" width="2.667" height="21.333" fill="#807edb"/>
    </g>
  </g>
  <g id="Group_107" data-name="Group 107" transform="translate(6.667 30.667)">
    <g id="Group_106" data-name="Group 106">
      <rect id="Rectangle_39" data-name="Rectangle 39" width="2.667" height="21.333" fill="#807edb"/>
    </g>
  </g>
  <g id="Group_109" data-name="Group 109" transform="translate(14.667 30.667)">
    <g id="Group_108" data-name="Group 108">
      <rect id="Rectangle_40" data-name="Rectangle 40" width="2.667" height="21.333" fill="#807edb"/>
    </g>
  </g>
  <g id="Group_111" data-name="Group 111" transform="translate(30.667 5.333)">
    <g id="Group_110" data-name="Group 110">
      <path id="Path_44" data-name="Path 44" d="M201.335,32h-16A1.333,1.333,0,0,0,184,33.332h0V44a1.333,1.333,0,0,0,1.332,1.333h16A1.333,1.333,0,0,0,202.667,44h0V33.333A1.333,1.333,0,0,0,201.335,32ZM200,42.667H186.667v-8H200Z" transform="translate(-184 -32)" fill="#807edb"/>
    </g>
  </g>
</svg>
